PathFileType	3	(X/Y/Z)	D:\minhoCalibration\240510\subject4_KPNP\preferred\preferred17.trc
DataRate	CameraRate	NumFrames	NumMarkers	Units	OrigDataRate	OrigDataStartFrame	OrigNumFrames
200.0	200.0	12	10	mm	200.0	306	92	
Frame#	Time	Left_Ankle_Outer1			Left_Ankle_Inner1			Left_Knee_Outer1			Left_Knee_Inner1			Left_Wrist1			Right_Wrist1			Right_Knee_Inner1			Right_Knee_Outer1			Right_Ankle_Inner1			Right_Ankle_Outer1			
		X1	Y1	Z1	X2	Y2	Z2	X3	Y3	Z3	X4	Y4	Z4	X5	Y5	Z5	X6	Y6	Z6	X7	Y7	Z7	X8	Y8	Z8	X9	Y9	Z9	X10	Y10	Z10	
306	1.52	-459.00702	1142.823	251.61775	-429.84528	1042.4607	262.68365	-352.02386	1135.929	765.81482	-348.88129	1045.8458	740.78571	-498.98914	1218.7372	1114.5488	-468.30438	910.85394	1327.0593	-384.90915	541.78455	1056.6616	-369.81689	557.27063	1163.4169	-565.52179	104.91395	1171.5212	-543.88593	118.02129	1223.5437
307	1.525	-461.1434	1128.4283	247.72713	-425.66446	1030.6477	261.35782	-365.57303	1142.5546	761.88226	-347.35538	1051.3448	741.01953	-504.01749	1219.4088	1112.7957	-468.37955	909.42731	1321.2476	-387.13135	541.90613	1051.7644	-369.66104	557.39545	1158.3577	-566.12677	104.9508	1170.056	-544.30859	118.51344	1221.8571
308	1.53	-463.08655	1113.9934	244.83578	-420.69171	1018.8052	259.85162	-380.97543	1146.4092	756.8139	-346.83932	1056.9901	740.73059	-508.59256	1220.2948	1111.2744	-467.75201	907.93176	1315.7184	-389.52289	541.83179	1047.1763	-369.52982	557.28131	1153.4639	-567.12408	104.91256	1168.2755	-544.85498	118.84885	1220.0221
309	1.535	-464.12952	1098.473	241.91672	-415.54349	1006.015	259.23251	-396.07724	1146.8555	751.80066	-347.81262	1061.9149	739.73297	-513.03003	1221.2026	1110.4338	-466.45892	906.28162	1311.4609	-392.37314	541.70343	1043.0172	-369.53748	557.00293	1148.764	-567.95227	104.7402	1166.5939	-545.46228	119.11803	1218.1559
310	1.54	-464.24411	1082.4421	239.1472	-410.22461	994.47028	258.3819	-409.50952	1144.9015	747.54321	-350.40698	1064.6307	737.96594	-517.48016	1221.5813	1109.9016	-464.84457	903.93152	1308.3456	-394.92242	541.88165	1039.2528	-369.28296	556.65363	1144.6581	-568.69647	104.52969	1165.0383	-546.17004	119.39136	1216.4286
311	1.545	-464.25281	1066.3342	236.87784	-406.25049	981.89392	255.76004	-420.06052	1141.7397	744.29852	-354.43008	1063.6793	735.99896	-521.8952	1221.5685	1109.4656	-462.85596	901.80212	1305.4908	-397.2916	541.92456	1035.7269	-368.97202	555.93744	1140.6836	-569.66895	104.43303	1163.8069	-546.82831	119.38416	1214.9143
312	1.55	-464.87585	1050.0143	235.32983	-402.49316	968.76086	254.39674	-428.28464	1137.504	741.4845	-359.49106	1060.2452	733.82355	-525.70819	1221.1975	1109.058	-460.29395	900.33185	1302.3282	-399.41153	542.04114	1032.7969	-368.82095	555.34235	1137.2847	-570.8114	103.85345	1162.7233	-547.42212	119.31493	1213.7651
313	1.555	-464.7742	1033.4613	233.6248	-389.99686	959.72314	268.33218	-433.70169	1132.235	738.26996	-364.42575	1055.527	731.74561	-529.99103	1220.3634	1108.5183	-457.40039	899.43591	1299.0803	-401.90747	541.90302	1030.6021	-368.61823	554.79242	1134.4978	-570.98822	103.55567	1162.2747	-547.68744	119.08719	1212.8975
314	1.56	-464.29068	1016.9239	232.18565	-383.29974	949.38165	274.36969	-437.75577	1125.9022	734.27185	-370.07013	1049.8704	729.41992	-533.92542	1218.9755	1107.4822	-454.23264	898.85193	1295.7891	-403.65234	541.39075	1028.5972	-368.48315	554.17407	1132.0275	-571.67389	102.77086	1161.9854	-547.82599	118.70699	1212.6189
315	1.565	-464.47546	1000.0773	231.48148	-377.93286	937.94379	280.73438	-440.54617	1119.3324	729.711	-375.26642	1043.5444	727.375	-537.98792	1217.332	1106.1021	-451.05426	898.52917	1293.0057	-405.09067	540.3205	1026.8975	-368.30441	553.55518	1130.0366	-572.16254	101.97446	1162.4384	-547.95325	118.25333	1212.9137
316	1.57	-465.56027	982.6308	231.53117	-375.40622	925.3252	281.66061	-443.39658	1113.0895	724.82947	-380.44717	1036.9495	725.91632	-542.04688	1215.5256	1104.433	-447.64227	898.65045	1290.5493	-406.56226	539.41437	1025.9537	-368.1286	552.8476	1128.4431	-572.38959	101.10657	1163.6541	-547.9024	117.80706	1213.7234
317	1.575	-466.65598	964.8197	231.99535	-374.23804	910.96924	282.01025	-446.53262	1106.8872	720.22156	-384.92087	1030.5459	725.04718	-546.59479	1213.4038	1102.5502	-444.13818	899.06116	1288.3087	-407.30643	537.88458	1025.0779	-367.95041	552.00067	1127.1326	-572.75482	100.1722	1165.1068	-547.63171	117.0237	1214.8416
